<svg id="visual" viewBox="0 0 960 540" width="960" height="540" xmlns="http://www.w3.org/2000/svg" xmlns:xlink="http://www.w3.org/1999/xlink" version="1.1"><path d="M0 389L96 356L192 327L288 344L384 394L480 337L576 334L672 352L768 340L864 331L960 384L960 0L864 0L768 0L672 0L576 0L480 0L384 0L288 0L192 0L96 0L0 0Z" fill="#00edd7"></path><path d="M0 301L96 339L192 324L288 351L384 351L480 310L576 304L672 345L768 348L864 361L960 300L960 0L864 0L768 0L672 0L576 0L480 0L384 0L288 0L192 0L96 0L0 0Z" fill="#00dbda"></path><path d="M0 289L96 322L192 316L288 309L384 292L480 303L576 283L672 292L768 310L864 317L960 327L960 0L864 0L768 0L672 0L576 0L480 0L384 0L288 0L192 0L96 0L0 0Z" fill="#00c9d9"></path><path d="M0 280L96 256L192 270L288 242L384 269L480 277L576 252L672 261L768 275L864 250L960 289L960 0L864 0L768 0L672 0L576 0L480 0L384 0L288 0L192 0L96 0L0 0Z" fill="#00b6d4"></path><path d="M0 226L96 218L192 224L288 233L384 239L480 257L576 222L672 233L768 215L864 229L960 239L960 0L864 0L768 0L672 0L576 0L480 0L384 0L288 0L192 0L96 0L0 0Z" fill="#00a3cc"></path><path d="M0 231L96 191L192 187L288 227L384 212L480 216L576 191L672 221L768 200L864 207L960 194L960 0L864 0L768 0L672 0L576 0L480 0L384 0L288 0L192 0L96 0L0 0Z" fill="#0090bf"></path><path d="M0 203L96 184L192 172L288 193L384 203L480 160L576 176L672 171L768 197L864 190L960 183L960 0L864 0L768 0L672 0L576 0L480 0L384 0L288 0L192 0L96 0L0 0Z" fill="#007eb1"></path><path d="M0 140L96 160L192 150L288 148L384 151L480 158L576 135L672 161L768 156L864 162L960 148L960 0L864 0L768 0L672 0L576 0L480 0L384 0L288 0L192 0L96 0L0 0Z" fill="#006ba1"></path><path d="M0 111L96 141L192 108L288 100L384 103L480 117L576 128L672 104L768 115L864 143L960 130L960 0L864 0L768 0L672 0L576 0L480 0L384 0L288 0L192 0L96 0L0 0Z" fill="#005991"></path><path d="M0 105L96 104L192 88L288 92L384 108L480 91L576 86L672 100L768 109L864 76L960 79L960 0L864 0L768 0L672 0L576 0L480 0L384 0L288 0L192 0L96 0L0 0Z" fill="#004780"></path><path d="M0 50L96 53L192 56L288 56L384 65L480 66L576 63L672 63L768 67L864 79L960 61L960 0L864 0L768 0L672 0L576 0L480 0L384 0L288 0L192 0L96 0L0 0Z" fill="#00366f"></path><path d="M0 19L96 41L192 38L288 19L384 18L480 31L576 44L672 28L768 19L864 27L960 47L960 0L864 0L768 0L672 0L576 0L480 0L384 0L288 0L192 0L96 0L0 0Z" fill="#00255d"></path></svg>